<?xml version="1.0" encoding="UTF-8" standalone="no"?><svg xmlns="http://www.w3.org/2000/svg" xmlns:xlink="http://www.w3.org/1999/xlink" contentScriptType="application/ecmascript" contentStyleType="text/css" height="1098px" preserveAspectRatio="none" style="width:1582px;height:1098px;" version="1.1" viewBox="0 0 1582 1098" width="1582px" zoomAndPan="magnify"><defs><filter height="300%" id="f1q28i0mbdzl41" width="300%" x="-1" y="-1"><feGaussianBlur result="blurOut" stdDeviation="2.0"/><feColorMatrix in="blurOut" result="blurOut2" type="matrix" values="0 0 0 0 0 0 0 0 0 0 0 0 0 0 0 0 0 0 .4 0"/><feOffset dx="4.0" dy="4.0" in="blurOut2" result="blurOut3"/><feBlend in="SourceGraphic" in2="blurOut3" mode="normal"/></filter></defs><g><text fill="#000000" font-family="sans-serif" font-size="18" lengthAdjust="spacingAndGlyphs" text-decoration="underline" textLength="177" x="696.5" y="16.708">APP's Class Diagram</text><line style="stroke: #000000; stroke-width: 1.0;" x1="696.5" x2="873.5" y1="18.708" y2="18.708"/><text fill="#000000" font-family="sans-serif" font-size="18" lengthAdjust="spacingAndGlyphs" textLength="0" x="788" y="37.6611"/><!--cluster com.example.android.gpslog_test--><polygon fill="#FFFFFF" filter="url(#f1q28i0mbdzl41)" points="166,171.9063,437,171.9063,444,194.2031,1374,194.2031,1374,1022.9063,166,1022.9063,166,171.9063" style="stroke: #000000; stroke-width: 2.0;"/><line style="stroke: #000000; stroke-width: 2.0;" x1="166" x2="444" y1="194.2031" y2="194.2031"/><text fill="#000000" font-family="sans-serif" font-size="14" font-weight="bold" lengthAdjust="spacingAndGlyphs" textLength="265" x="170" y="186.9014">com.example.android.gpslog_test</text><!--cluster androidx.recyclerview.widget.RecyclerView--><polygon fill="#FFFFFF" filter="url(#f1q28i0mbdzl41)" points="32,57.9063,385,57.9063,392,80.2031,395,80.2031,395,140.9063,32,140.9063,32,57.9063" style="stroke: #000000; stroke-width: 2.0;"/><line style="stroke: #000000; stroke-width: 2.0;" x1="32" x2="392" y1="80.2031" y2="80.2031"/><text fill="#000000" font-family="sans-serif" font-size="14" font-weight="bold" lengthAdjust="spacingAndGlyphs" textLength="347" x="36" y="72.9014">androidx.recyclerview.widget.RecyclerView</text><!--cluster androidx.room--><polygon fill="#FFFFFF" filter="url(#f1q28i0mbdzl41)" points="14,285.9063,135,285.9063,142,308.2031,158,308.2031,158,368.9063,14,368.9063,14,285.9063" style="stroke: #000000; stroke-width: 2.0;"/><line style="stroke: #000000; stroke-width: 2.0;" x1="14" x2="142" y1="308.2031" y2="308.2031"/><text fill="#000000" font-family="sans-serif" font-size="14" font-weight="bold" lengthAdjust="spacingAndGlyphs" textLength="115" x="18" y="300.9014">androidx.room</text><!--cluster androidx.lifecycle--><polygon fill="#FFFFFF" filter="url(#f1q28i0mbdzl41)" points="1382,285.9063,1527,285.9063,1534,308.2031,1544,308.2031,1544,368.9063,1382,368.9063,1382,285.9063" style="stroke: #000000; stroke-width: 2.0;"/><line style="stroke: #000000; stroke-width: 2.0;" x1="1382" x2="1534" y1="308.2031" y2="308.2031"/><text fill="#000000" font-family="sans-serif" font-size="14" font-weight="bold" lengthAdjust="spacingAndGlyphs" textLength="139" x="1386" y="300.9014">androidx.lifecycle</text><!--cluster com.github.mikephil.charting.listener--><polygon fill="#FFFFFF" filter="url(#f1q28i0mbdzl41)" points="403,57.9063,702,57.9063,709,80.2031,712,80.2031,712,140.9063,403,140.9063,403,57.9063" style="stroke: #000000; stroke-width: 2.0;"/><line style="stroke: #000000; stroke-width: 2.0;" x1="403" x2="709" y1="80.2031" y2="80.2031"/><text fill="#000000" font-family="sans-serif" font-size="14" font-weight="bold" lengthAdjust="spacingAndGlyphs" textLength="293" x="407" y="72.9014">com.github.mikephil.charting.listener</text><!--cluster androidx.appcompat.app--><polygon fill="#FFFFFF" filter="url(#f1q28i0mbdzl41)" points="720,57.9063,921,57.9063,928,80.2031,931,80.2031,931,140.9063,720,140.9063,720,57.9063" style="stroke: #000000; stroke-width: 2.0;"/><line style="stroke: #000000; stroke-width: 2.0;" x1="720" x2="928" y1="80.2031" y2="80.2031"/><text fill="#000000" font-family="sans-serif" font-size="14" font-weight="bold" lengthAdjust="spacingAndGlyphs" textLength="195" x="724" y="72.9014">androidx.appcompat.app</text><!--cluster androidx.appcompat.widget--><polygon fill="#FFFFFF" filter="url(#f1q28i0mbdzl41)" points="939,57.9063,1165,57.9063,1172,80.2031,1175,80.2031,1175,140.9063,939,140.9063,939,57.9063" style="stroke: #000000; stroke-width: 2.0;"/><line style="stroke: #000000; stroke-width: 2.0;" x1="939" x2="1172" y1="80.2031" y2="80.2031"/><text fill="#000000" font-family="sans-serif" font-size="14" font-weight="bold" lengthAdjust="spacingAndGlyphs" textLength="220" x="943" y="72.9014">androidx.appcompat.widget</text><!--class com.example.android.gpslog_test.ActivityAdapter--><rect fill="#FEFECE" filter="url(#f1q28i0mbdzl41)" height="48" id="com.example.android.gpslog_test.ActivityAdapter" style="stroke: #A80036; stroke-width: 1.5;" width="125" x="353.5" y="198.9063"/><ellipse cx="368.5" cy="214.9063" fill="#ADD1B2" rx="11" ry="11" style="stroke: #A80036; stroke-width: 1.0;"/><path d="M371.4688,220.5469 Q370.8906,220.8438 370.25,220.9844 Q369.6094,221.1406 368.9063,221.1406 Q366.4063,221.1406 365.0781,219.5 Q363.7656,217.8438 363.7656,214.7188 Q363.7656,211.5938 365.0781,209.9375 Q366.4063,208.2813 368.9063,208.2813 Q369.6094,208.2813 370.25,208.4375 Q370.9063,208.5938 371.4688,208.8906 L371.4688,211.6094 Q370.8438,211.0313 370.25,210.7656 Q369.6563,210.4844 369.0313,210.4844 Q367.6875,210.4844 367,211.5625 Q366.3125,212.625 366.3125,214.7188 Q366.3125,216.8125 367,217.8906 Q367.6875,218.9531 369.0313,218.9531 Q369.6563,218.9531 370.25,218.6875 Q370.8438,218.4063 371.4688,217.8281 L371.4688,220.5469 Z "/><text fill="#000000" font-family="sans-serif" font-size="12" lengthAdjust="spacingAndGlyphs" textLength="93" x="382.5" y="219.0605">ActivityAdapter</text><line style="stroke: #A80036; stroke-width: 1.5;" x1="354.5" x2="477.5" y1="230.9063" y2="230.9063"/><line style="stroke: #A80036; stroke-width: 1.5;" x1="354.5" x2="477.5" y1="238.9063" y2="238.9063"/><!--class com.example.android.gpslog_test.ActivityViewHolder--><rect fill="#FEFECE" filter="url(#f1q28i0mbdzl41)" height="48" id="com.example.android.gpslog_test.ActivityViewHolder" style="stroke: #A80036; stroke-width: 1.5;" width="144" x="174" y="198.9063"/><ellipse cx="189" cy="214.9063" fill="#ADD1B2" rx="11" ry="11" style="stroke: #A80036; stroke-width: 1.0;"/><path d="M191.9688,220.5469 Q191.3906,220.8438 190.75,220.9844 Q190.1094,221.1406 189.4063,221.1406 Q186.9063,221.1406 185.5781,219.5 Q184.2656,217.8438 184.2656,214.7188 Q184.2656,211.5938 185.5781,209.9375 Q186.9063,208.2813 189.4063,208.2813 Q190.1094,208.2813 190.75,208.4375 Q191.4063,208.5938 191.9688,208.8906 L191.9688,211.6094 Q191.3438,211.0313 190.75,210.7656 Q190.1563,210.4844 189.5313,210.4844 Q188.1875,210.4844 187.5,211.5625 Q186.8125,212.625 186.8125,214.7188 Q186.8125,216.8125 187.5,217.8906 Q188.1875,218.9531 189.5313,218.9531 Q190.1563,218.9531 190.75,218.6875 Q191.3438,218.4063 191.9688,217.8281 L191.9688,220.5469 Z "/><text fill="#000000" font-family="sans-serif" font-size="12" lengthAdjust="spacingAndGlyphs" textLength="112" x="203" y="219.0605">ActivityViewHolder</text><line style="stroke: #A80036; stroke-width: 1.5;" x1="175" x2="317" y1="230.9063" y2="230.9063"/><line style="stroke: #A80036; stroke-width: 1.5;" x1="175" x2="317" y1="238.9063" y2="238.9063"/><!--class com.example.android.gpslog_test.AppDatabase--><rect fill="#FEFECE" filter="url(#f1q28i0mbdzl41)" height="48" id="com.example.android.gpslog_test.AppDatabase" style="stroke: #A80036; stroke-width: 1.5;" width="116" x="174" y="421.9063"/><ellipse cx="189" cy="437.9063" fill="#A9DCDF" rx="11" ry="11" style="stroke: #A80036; stroke-width: 1.0;"/><path d="M189.1094,433.25 L187.9531,438.3281 L190.2813,438.3281 L189.1094,433.25 Z M187.625,431.0156 L190.6094,431.0156 L193.9688,443.4063 L191.5156,443.4063 L190.75,440.3438 L187.4688,440.3438 L186.7188,443.4063 L184.2813,443.4063 L187.625,431.0156 Z "/><text fill="#000000" font-family="sans-serif" font-size="12" font-style="italic" lengthAdjust="spacingAndGlyphs" textLength="84" x="203" y="442.0605">AppDatabase</text><line style="stroke: #A80036; stroke-width: 1.5;" x1="175" x2="289" y1="453.9063" y2="453.9063"/><line style="stroke: #A80036; stroke-width: 1.5;" x1="175" x2="289" y1="461.9063" y2="461.9063"/><!--class com.example.android.gpslog_test.AppDatabaseDao--><rect fill="#FEFECE" filter="url(#f1q28i0mbdzl41)" height="48" id="com.example.android.gpslog_test.AppDatabaseDao" style="stroke: #A80036; stroke-width: 1.5;" width="141" x="224.5" y="795.9063"/><ellipse cx="239.5" cy="811.9063" fill="#B4A7E5" rx="11" ry="11" style="stroke: #A80036; stroke-width: 1.0;"/><path d="M235.4219,807.6719 L235.4219,805.5156 L242.8125,805.5156 L242.8125,807.6719 L240.3438,807.6719 L240.3438,815.75 L242.8125,815.75 L242.8125,817.9063 L235.4219,817.9063 L235.4219,815.75 L237.8906,815.75 L237.8906,807.6719 L235.4219,807.6719 Z "/><text fill="#000000" font-family="sans-serif" font-size="12" font-style="italic" lengthAdjust="spacingAndGlyphs" textLength="109" x="253.5" y="816.0605">AppDatabaseDao</text><line style="stroke: #A80036; stroke-width: 1.5;" x1="225.5" x2="364.5" y1="827.9063" y2="827.9063"/><line style="stroke: #A80036; stroke-width: 1.5;" x1="225.5" x2="364.5" y1="835.9063" y2="835.9063"/><!--class com.example.android.gpslog_test.AppDatabaseDao_Impl--><rect fill="#FEFECE" filter="url(#f1q28i0mbdzl41)" height="48" id="com.example.android.gpslog_test.AppDatabaseDao_Impl" style="stroke: #A80036; stroke-width: 1.5;" width="173" x="208.5" y="966.9063"/><ellipse cx="223.5" cy="982.9063" fill="#ADD1B2" rx="11" ry="11" style="stroke: #A80036; stroke-width: 1.0;"/><path d="M226.4688,988.5469 Q225.8906,988.8438 225.25,988.9844 Q224.6094,989.1406 223.9063,989.1406 Q221.4063,989.1406 220.0781,987.5 Q218.7656,985.8438 218.7656,982.7188 Q218.7656,979.5938 220.0781,977.9375 Q221.4063,976.2813 223.9063,976.2813 Q224.6094,976.2813 225.25,976.4375 Q225.9063,976.5938 226.4688,976.8906 L226.4688,979.6094 Q225.8438,979.0313 225.25,978.7656 Q224.6563,978.4844 224.0313,978.4844 Q222.6875,978.4844 222,979.5625 Q221.3125,980.625 221.3125,982.7188 Q221.3125,984.8125 222,985.8906 Q222.6875,986.9531 224.0313,986.9531 Q224.6563,986.9531 225.25,986.6875 Q225.8438,986.4063 226.4688,985.8281 L226.4688,988.5469 Z "/><text fill="#000000" font-family="sans-serif" font-size="12" lengthAdjust="spacingAndGlyphs" textLength="141" x="237.5" y="987.0605">AppDatabaseDao_Impl</text><line style="stroke: #A80036; stroke-width: 1.5;" x1="209.5" x2="380.5" y1="998.9063" y2="998.9063"/><line style="stroke: #A80036; stroke-width: 1.5;" x1="209.5" x2="380.5" y1="1006.9063" y2="1006.9063"/><!--class com.example.android.gpslog_test.AppDatabase_Impl--><rect fill="#FEFECE" filter="url(#f1q28i0mbdzl41)" height="48" id="com.example.android.gpslog_test.AppDatabase_Impl" style="stroke: #A80036; stroke-width: 1.5;" width="148" x="195" y="608.9063"/><ellipse cx="210" cy="624.9063" fill="#ADD1B2" rx="11" ry="11" style="stroke: #A80036; stroke-width: 1.0;"/><path d="M212.9688,630.5469 Q212.3906,630.8438 211.75,630.9844 Q211.1094,631.1406 210.4063,631.1406 Q207.9063,631.1406 206.5781,629.5 Q205.2656,627.8438 205.2656,624.7188 Q205.2656,621.5938 206.5781,619.9375 Q207.9063,618.2813 210.4063,618.2813 Q211.1094,618.2813 211.75,618.4375 Q212.4063,618.5938 212.9688,618.8906 L212.9688,621.6094 Q212.3438,621.0313 211.75,620.7656 Q211.1563,620.4844 210.5313,620.4844 Q209.1875,620.4844 208.5,621.5625 Q207.8125,622.625 207.8125,624.7188 Q207.8125,626.8125 208.5,627.8906 Q209.1875,628.9531 210.5313,628.9531 Q211.1563,628.9531 211.75,628.6875 Q212.3438,628.4063 212.9688,627.8281 L212.9688,630.5469 Z "/><text fill="#000000" font-family="sans-serif" font-size="12" lengthAdjust="spacingAndGlyphs" textLength="116" x="224" y="629.0605">AppDatabase_Impl</text><line style="stroke: #A80036; stroke-width: 1.5;" x1="196" x2="342" y1="640.9063" y2="640.9063"/><line style="stroke: #A80036; stroke-width: 1.5;" x1="196" x2="342" y1="648.9063" y2="648.9063"/><!--class com.example.android.gpslog_test.AppRepository--><rect fill="#FEFECE" filter="url(#f1q28i0mbdzl41)" height="48" id="com.example.android.gpslog_test.AppRepository" style="stroke: #A80036; stroke-width: 1.5;" width="122" x="622" y="608.9063"/><ellipse cx="637" cy="624.9063" fill="#ADD1B2" rx="11" ry="11" style="stroke: #A80036; stroke-width: 1.0;"/><path d="M639.9688,630.5469 Q639.3906,630.8438 638.75,630.9844 Q638.1094,631.1406 637.4063,631.1406 Q634.9063,631.1406 633.5781,629.5 Q632.2656,627.8438 632.2656,624.7188 Q632.2656,621.5938 633.5781,619.9375 Q634.9063,618.2813 637.4063,618.2813 Q638.1094,618.2813 638.75,618.4375 Q639.4063,618.5938 639.9688,618.8906 L639.9688,621.6094 Q639.3438,621.0313 638.75,620.7656 Q638.1563,620.4844 637.5313,620.4844 Q636.1875,620.4844 635.5,621.5625 Q634.8125,622.625 634.8125,624.7188 Q634.8125,626.8125 635.5,627.8906 Q636.1875,628.9531 637.5313,628.9531 Q638.1563,628.9531 638.75,628.6875 Q639.3438,628.4063 639.9688,627.8281 L639.9688,630.5469 Z "/><text fill="#000000" font-family="sans-serif" font-size="12" lengthAdjust="spacingAndGlyphs" textLength="90" x="651" y="629.0605">AppRepository</text><line style="stroke: #A80036; stroke-width: 1.5;" x1="623" x2="743" y1="640.9063" y2="640.9063"/><line style="stroke: #A80036; stroke-width: 1.5;" x1="623" x2="743" y1="648.9063" y2="648.9063"/><!--class com.example.android.gpslog_test.AppViewModel--><rect fill="#FEFECE" filter="url(#f1q28i0mbdzl41)" height="48" id="com.example.android.gpslog_test.AppViewModel" style="stroke: #A80036; stroke-width: 1.5;" width="121" x="656.5" y="421.9063"/><ellipse cx="671.5" cy="437.9063" fill="#ADD1B2" rx="11" ry="11" style="stroke: #A80036; stroke-width: 1.0;"/><path d="M674.4688,443.5469 Q673.8906,443.8438 673.25,443.9844 Q672.6094,444.1406 671.9063,444.1406 Q669.4063,444.1406 668.0781,442.5 Q666.7656,440.8438 666.7656,437.7188 Q666.7656,434.5938 668.0781,432.9375 Q669.4063,431.2813 671.9063,431.2813 Q672.6094,431.2813 673.25,431.4375 Q673.9063,431.5938 674.4688,431.8906 L674.4688,434.6094 Q673.8438,434.0313 673.25,433.7656 Q672.6563,433.4844 672.0313,433.4844 Q670.6875,433.4844 670,434.5625 Q669.3125,435.625 669.3125,437.7188 Q669.3125,439.8125 670,440.8906 Q670.6875,441.9531 672.0313,441.9531 Q672.6563,441.9531 673.25,441.6875 Q673.8438,441.4063 674.4688,440.8281 L674.4688,443.5469 Z "/><text fill="#000000" font-family="sans-serif" font-size="12" lengthAdjust="spacingAndGlyphs" textLength="89" x="685.5" y="442.0605">AppViewModel</text><line style="stroke: #A80036; stroke-width: 1.5;" x1="657.5" x2="776.5" y1="453.9063" y2="453.9063"/><line style="stroke: #A80036; stroke-width: 1.5;" x1="657.5" x2="776.5" y1="461.9063" y2="461.9063"/><!--class com.example.android.gpslog_test.BuildConfig--><rect fill="#FEFECE" filter="url(#f1q28i0mbdzl41)" height="48" id="com.example.android.gpslog_test.BuildConfig" style="stroke: #A80036; stroke-width: 1.5;" width="101" x="972.5" y="198.9063"/><ellipse cx="987.5" cy="214.9063" fill="#ADD1B2" rx="11" ry="11" style="stroke: #A80036; stroke-width: 1.0;"/><path d="M990.4688,220.5469 Q989.8906,220.8438 989.25,220.9844 Q988.6094,221.1406 987.9063,221.1406 Q985.4063,221.1406 984.0781,219.5 Q982.7656,217.8438 982.7656,214.7188 Q982.7656,211.5938 984.0781,209.9375 Q985.4063,208.2813 987.9063,208.2813 Q988.6094,208.2813 989.25,208.4375 Q989.9063,208.5938 990.4688,208.8906 L990.4688,211.6094 Q989.8438,211.0313 989.25,210.7656 Q988.6563,210.4844 988.0313,210.4844 Q986.6875,210.4844 986,211.5625 Q985.3125,212.625 985.3125,214.7188 Q985.3125,216.8125 986,217.8906 Q986.6875,218.9531 988.0313,218.9531 Q988.6563,218.9531 989.25,218.6875 Q989.8438,218.4063 990.4688,217.8281 L990.4688,220.5469 Z "/><text fill="#000000" font-family="sans-serif" font-size="12" lengthAdjust="spacingAndGlyphs" textLength="69" x="1001.5" y="219.0605">BuildConfig</text><line style="stroke: #A80036; stroke-width: 1.5;" x1="973.5" x2="1072.5" y1="230.9063" y2="230.9063"/><line style="stroke: #A80036; stroke-width: 1.5;" x1="973.5" x2="1072.5" y1="238.9063" y2="238.9063"/><!--class com.example.android.gpslog_test.ChartManage--><rect fill="#FEFECE" filter="url(#f1q28i0mbdzl41)" height="48" id="com.example.android.gpslog_test.ChartManage" style="stroke: #A80036; stroke-width: 1.5;" width="116" x="514" y="198.9063"/><ellipse cx="529" cy="214.9063" fill="#ADD1B2" rx="11" ry="11" style="stroke: #A80036; stroke-width: 1.0;"/><path d="M531.9688,220.5469 Q531.3906,220.8438 530.75,220.9844 Q530.1094,221.1406 529.4063,221.1406 Q526.9063,221.1406 525.5781,219.5 Q524.2656,217.8438 524.2656,214.7188 Q524.2656,211.5938 525.5781,209.9375 Q526.9063,208.2813 529.4063,208.2813 Q530.1094,208.2813 530.75,208.4375 Q531.4063,208.5938 531.9688,208.8906 L531.9688,211.6094 Q531.3438,211.0313 530.75,210.7656 Q530.1563,210.4844 529.5313,210.4844 Q528.1875,210.4844 527.5,211.5625 Q526.8125,212.625 526.8125,214.7188 Q526.8125,216.8125 527.5,217.8906 Q528.1875,218.9531 529.5313,218.9531 Q530.1563,218.9531 530.75,218.6875 Q531.3438,218.4063 531.9688,217.8281 L531.9688,220.5469 Z "/><text fill="#000000" font-family="sans-serif" font-size="12" lengthAdjust="spacingAndGlyphs" textLength="84" x="543" y="219.0605">ChartManage</text><line style="stroke: #A80036; stroke-width: 1.5;" x1="515" x2="629" y1="230.9063" y2="230.9063"/><line style="stroke: #A80036; stroke-width: 1.5;" x1="515" x2="629" y1="238.9063" y2="238.9063"/><!--class com.example.android.gpslog_test.ExerciseEntity--><rect fill="#FEFECE" filter="url(#f1q28i0mbdzl41)" height="48" id="com.example.android.gpslog_test.ExerciseEntity" style="stroke: #A80036; stroke-width: 1.5;" width="119" x="1108.5" y="198.9063"/><ellipse cx="1123.5" cy="214.9063" fill="#ADD1B2" rx="11" ry="11" style="stroke: #A80036; stroke-width: 1.0;"/><path d="M1126.4688,220.5469 Q1125.8906,220.8438 1125.25,220.9844 Q1124.6094,221.1406 1123.9063,221.1406 Q1121.4063,221.1406 1120.0781,219.5 Q1118.7656,217.8438 1118.7656,214.7188 Q1118.7656,211.5938 1120.0781,209.9375 Q1121.4063,208.2813 1123.9063,208.2813 Q1124.6094,208.2813 1125.25,208.4375 Q1125.9063,208.5938 1126.4688,208.8906 L1126.4688,211.6094 Q1125.8438,211.0313 1125.25,210.7656 Q1124.6563,210.4844 1124.0313,210.4844 Q1122.6875,210.4844 1122,211.5625 Q1121.3125,212.625 1121.3125,214.7188 Q1121.3125,216.8125 1122,217.8906 Q1122.6875,218.9531 1124.0313,218.9531 Q1124.6563,218.9531 1125.25,218.6875 Q1125.8438,218.4063 1126.4688,217.8281 L1126.4688,220.5469 Z "/><text fill="#000000" font-family="sans-serif" font-size="12" lengthAdjust="spacingAndGlyphs" textLength="87" x="1137.5" y="219.0605">ExerciseEntity</text><line style="stroke: #A80036; stroke-width: 1.5;" x1="1109.5" x2="1226.5" y1="230.9063" y2="230.9063"/><line style="stroke: #A80036; stroke-width: 1.5;" x1="1109.5" x2="1226.5" y1="238.9063" y2="238.9063"/><!--class com.example.android.gpslog_test.LocManage--><rect fill="#FEFECE" filter="url(#f1q28i0mbdzl41)" height="48" id="com.example.android.gpslog_test.LocManage" style="stroke: #A80036; stroke-width: 1.5;" width="103" x="1262.5" y="198.9063"/><ellipse cx="1277.5" cy="214.9063" fill="#ADD1B2" rx="11" ry="11" style="stroke: #A80036; stroke-width: 1.0;"/><path d="M1280.4688,220.5469 Q1279.8906,220.8438 1279.25,220.9844 Q1278.6094,221.1406 1277.9063,221.1406 Q1275.4063,221.1406 1274.0781,219.5 Q1272.7656,217.8438 1272.7656,214.7188 Q1272.7656,211.5938 1274.0781,209.9375 Q1275.4063,208.2813 1277.9063,208.2813 Q1278.6094,208.2813 1279.25,208.4375 Q1279.9063,208.5938 1280.4688,208.8906 L1280.4688,211.6094 Q1279.8438,211.0313 1279.25,210.7656 Q1278.6563,210.4844 1278.0313,210.4844 Q1276.6875,210.4844 1276,211.5625 Q1275.3125,212.625 1275.3125,214.7188 Q1275.3125,216.8125 1276,217.8906 Q1276.6875,218.9531 1278.0313,218.9531 Q1278.6563,218.9531 1279.25,218.6875 Q1279.8438,218.4063 1280.4688,217.8281 L1280.4688,220.5469 Z "/><text fill="#000000" font-family="sans-serif" font-size="12" lengthAdjust="spacingAndGlyphs" textLength="71" x="1291.5" y="219.0605">LocManage</text><line style="stroke: #A80036; stroke-width: 1.5;" x1="1263.5" x2="1364.5" y1="230.9063" y2="230.9063"/><line style="stroke: #A80036; stroke-width: 1.5;" x1="1263.5" x2="1364.5" y1="238.9063" y2="238.9063"/><!--class com.example.android.gpslog_test.MainActivity--><rect fill="#FEFECE" filter="url(#f1q28i0mbdzl41)" height="48" id="com.example.android.gpslog_test.MainActivity" style="stroke: #A80036; stroke-width: 1.5;" width="104" x="665" y="198.9063"/><ellipse cx="680" cy="214.9063" fill="#ADD1B2" rx="11" ry="11" style="stroke: #A80036; stroke-width: 1.0;"/><path d="M682.9688,220.5469 Q682.3906,220.8438 681.75,220.9844 Q681.1094,221.1406 680.4063,221.1406 Q677.9063,221.1406 676.5781,219.5 Q675.2656,217.8438 675.2656,214.7188 Q675.2656,211.5938 676.5781,209.9375 Q677.9063,208.2813 680.4063,208.2813 Q681.1094,208.2813 681.75,208.4375 Q682.4063,208.5938 682.9688,208.8906 L682.9688,211.6094 Q682.3438,211.0313 681.75,210.7656 Q681.1563,210.4844 680.5313,210.4844 Q679.1875,210.4844 678.5,211.5625 Q677.8125,212.625 677.8125,214.7188 Q677.8125,216.8125 678.5,217.8906 Q679.1875,218.9531 680.5313,218.9531 Q681.1563,218.9531 681.75,218.6875 Q682.3438,218.4063 682.9688,217.8281 L682.9688,220.5469 Z "/><text fill="#000000" font-family="sans-serif" font-size="12" lengthAdjust="spacingAndGlyphs" textLength="72" x="694" y="219.0605">MainActivity</text><line style="stroke: #A80036; stroke-width: 1.5;" x1="666" x2="768" y1="230.9063" y2="230.9063"/><line style="stroke: #A80036; stroke-width: 1.5;" x1="666" x2="768" y1="238.9063" y2="238.9063"/><!--class com.example.android.gpslog_test.MapManage--><rect fill="#FEFECE" filter="url(#f1q28i0mbdzl41)" height="48" id="com.example.android.gpslog_test.MapManage" style="stroke: #A80036; stroke-width: 1.5;" width="108" x="969" y="421.9063"/><ellipse cx="984" cy="437.9063" fill="#ADD1B2" rx="11" ry="11" style="stroke: #A80036; stroke-width: 1.0;"/><path d="M986.9688,443.5469 Q986.3906,443.8438 985.75,443.9844 Q985.1094,444.1406 984.4063,444.1406 Q981.9063,444.1406 980.5781,442.5 Q979.2656,440.8438 979.2656,437.7188 Q979.2656,434.5938 980.5781,432.9375 Q981.9063,431.2813 984.4063,431.2813 Q985.1094,431.2813 985.75,431.4375 Q986.4063,431.5938 986.9688,431.8906 L986.9688,434.6094 Q986.3438,434.0313 985.75,433.7656 Q985.1563,433.4844 984.5313,433.4844 Q983.1875,433.4844 982.5,434.5625 Q981.8125,435.625 981.8125,437.7188 Q981.8125,439.8125 982.5,440.8906 Q983.1875,441.9531 984.5313,441.9531 Q985.1563,441.9531 985.75,441.6875 Q986.3438,441.4063 986.9688,440.8281 L986.9688,443.5469 Z "/><text fill="#000000" font-family="sans-serif" font-size="12" lengthAdjust="spacingAndGlyphs" textLength="76" x="998" y="442.0605">MapManage</text><line style="stroke: #A80036; stroke-width: 1.5;" x1="970" x2="1076" y1="453.9063" y2="453.9063"/><line style="stroke: #A80036; stroke-width: 1.5;" x1="970" x2="1076" y1="461.9063" y2="461.9063"/><!--class com.example.android.gpslog_test.TrackEntity--><rect fill="#FEFECE" filter="url(#f1q28i0mbdzl41)" height="48" id="com.example.android.gpslog_test.TrackEntity" style="stroke: #A80036; stroke-width: 1.5;" width="101" x="1112.5" y="421.9063"/><ellipse cx="1127.5" cy="437.9063" fill="#ADD1B2" rx="11" ry="11" style="stroke: #A80036; stroke-width: 1.0;"/><path d="M1130.4688,443.5469 Q1129.8906,443.8438 1129.25,443.9844 Q1128.6094,444.1406 1127.9063,444.1406 Q1125.4063,444.1406 1124.0781,442.5 Q1122.7656,440.8438 1122.7656,437.7188 Q1122.7656,434.5938 1124.0781,432.9375 Q1125.4063,431.2813 1127.9063,431.2813 Q1128.6094,431.2813 1129.25,431.4375 Q1129.9063,431.5938 1130.4688,431.8906 L1130.4688,434.6094 Q1129.8438,434.0313 1129.25,433.7656 Q1128.6563,433.4844 1128.0313,433.4844 Q1126.6875,433.4844 1126,434.5625 Q1125.3125,435.625 1125.3125,437.7188 Q1125.3125,439.8125 1126,440.8906 Q1126.6875,441.9531 1128.0313,441.9531 Q1128.6563,441.9531 1129.25,441.6875 Q1129.8438,441.4063 1130.4688,440.8281 L1130.4688,443.5469 Z "/><text fill="#000000" font-family="sans-serif" font-size="12" lengthAdjust="spacingAndGlyphs" textLength="69" x="1141.5" y="442.0605">TrackEntity</text><line style="stroke: #A80036; stroke-width: 1.5;" x1="1113.5" x2="1212.5" y1="453.9063" y2="453.9063"/><line style="stroke: #A80036; stroke-width: 1.5;" x1="1113.5" x2="1212.5" y1="461.9063" y2="461.9063"/><!--class com.example.android.gpslog_test.TypeEntity--><rect fill="#FEFECE" filter="url(#f1q28i0mbdzl41)" height="48" id="com.example.android.gpslog_test.TypeEntity" style="stroke: #A80036; stroke-width: 1.5;" width="96" x="1249" y="421.9063"/><ellipse cx="1264" cy="437.9063" fill="#ADD1B2" rx="11" ry="11" style="stroke: #A80036; stroke-width: 1.0;"/><path d="M1266.9688,443.5469 Q1266.3906,443.8438 1265.75,443.9844 Q1265.1094,444.1406 1264.4063,444.1406 Q1261.9063,444.1406 1260.5781,442.5 Q1259.2656,440.8438 1259.2656,437.7188 Q1259.2656,434.5938 1260.5781,432.9375 Q1261.9063,431.2813 1264.4063,431.2813 Q1265.1094,431.2813 1265.75,431.4375 Q1266.4063,431.5938 1266.9688,431.8906 L1266.9688,434.6094 Q1266.3438,434.0313 1265.75,433.7656 Q1265.1563,433.4844 1264.5313,433.4844 Q1263.1875,433.4844 1262.5,434.5625 Q1261.8125,435.625 1261.8125,437.7188 Q1261.8125,439.8125 1262.5,440.8906 Q1263.1875,441.9531 1264.5313,441.9531 Q1265.1563,441.9531 1265.75,441.6875 Q1266.3438,441.4063 1266.9688,440.8281 L1266.9688,443.5469 Z "/><text fill="#000000" font-family="sans-serif" font-size="12" lengthAdjust="spacingAndGlyphs" textLength="64" x="1278" y="442.0605">TypeEntity</text><line style="stroke: #A80036; stroke-width: 1.5;" x1="1250" x2="1344" y1="453.9063" y2="453.9063"/><line style="stroke: #A80036; stroke-width: 1.5;" x1="1250" x2="1344" y1="461.9063" y2="461.9063"/><!--class com.example.android.gpslog_test.Utils--><rect fill="#FEFECE" filter="url(#f1q28i0mbdzl41)" height="48" id="com.example.android.gpslog_test.Utils" style="stroke: #A80036; stroke-width: 1.5;" width="59" x="993.5" y="608.9063"/><ellipse cx="1008.5" cy="624.9063" fill="#ADD1B2" rx="11" ry="11" style="stroke: #A80036; stroke-width: 1.0;"/><path d="M1011.4688,630.5469 Q1010.8906,630.8438 1010.25,630.9844 Q1009.6094,631.1406 1008.9063,631.1406 Q1006.4063,631.1406 1005.0781,629.5 Q1003.7656,627.8438 1003.7656,624.7188 Q1003.7656,621.5938 1005.0781,619.9375 Q1006.4063,618.2813 1008.9063,618.2813 Q1009.6094,618.2813 1010.25,618.4375 Q1010.9063,618.5938 1011.4688,618.8906 L1011.4688,621.6094 Q1010.8438,621.0313 1010.25,620.7656 Q1009.6563,620.4844 1009.0313,620.4844 Q1007.6875,620.4844 1007,621.5625 Q1006.3125,622.625 1006.3125,624.7188 Q1006.3125,626.8125 1007,627.8906 Q1007.6875,628.9531 1009.0313,628.9531 Q1009.6563,628.9531 1010.25,628.6875 Q1010.8438,628.4063 1011.4688,627.8281 L1011.4688,630.5469 Z "/><text fill="#000000" font-family="sans-serif" font-size="12" lengthAdjust="spacingAndGlyphs" textLength="27" x="1022.5" y="629.0605">Utils</text><line style="stroke: #A80036; stroke-width: 1.5;" x1="994.5" x2="1051.5" y1="640.9063" y2="640.9063"/><line style="stroke: #A80036; stroke-width: 1.5;" x1="994.5" x2="1051.5" y1="648.9063" y2="648.9063"/><!--class com.example.android.gpslog_test.VerticalTextView--><rect fill="#FEFECE" filter="url(#f1q28i0mbdzl41)" height="48" id="com.example.android.gpslog_test.VerticalTextView" style="stroke: #A80036; stroke-width: 1.5;" width="133" x="804.5" y="198.9063"/><ellipse cx="819.5" cy="214.9063" fill="#ADD1B2" rx="11" ry="11" style="stroke: #A80036; stroke-width: 1.0;"/><path d="M822.4688,220.5469 Q821.8906,220.8438 821.25,220.9844 Q820.6094,221.1406 819.9063,221.1406 Q817.4063,221.1406 816.0781,219.5 Q814.7656,217.8438 814.7656,214.7188 Q814.7656,211.5938 816.0781,209.9375 Q817.4063,208.2813 819.9063,208.2813 Q820.6094,208.2813 821.25,208.4375 Q821.9063,208.5938 822.4688,208.8906 L822.4688,211.6094 Q821.8438,211.0313 821.25,210.7656 Q820.6563,210.4844 820.0313,210.4844 Q818.6875,210.4844 818,211.5625 Q817.3125,212.625 817.3125,214.7188 Q817.3125,216.8125 818,217.8906 Q818.6875,218.9531 820.0313,218.9531 Q820.6563,218.9531 821.25,218.6875 Q821.8438,218.4063 822.4688,217.8281 L822.4688,220.5469 Z "/><text fill="#000000" font-family="sans-serif" font-size="12" lengthAdjust="spacingAndGlyphs" textLength="101" x="833.5" y="219.0605">VerticalTextView</text><line style="stroke: #A80036; stroke-width: 1.5;" x1="805.5" x2="936.5" y1="230.9063" y2="230.9063"/><line style="stroke: #A80036; stroke-width: 1.5;" x1="805.5" x2="936.5" y1="238.9063" y2="238.9063"/><!--class com.example.android.gpslog_test.ActivityAdapter.OnItemClickListener--><rect fill="#FEFECE" filter="url(#f1q28i0mbdzl41)" height="48" id="com.example.android.gpslog_test.ActivityAdapter.OnItemClickListener" style="stroke: #A80036; stroke-width: 1.5;" width="251" x="325.5" y="421.9063"/><ellipse cx="340.5" cy="437.9063" fill="#ADD1B2" rx="11" ry="11" style="stroke: #A80036; stroke-width: 1.0;"/><path d="M343.4688,443.5469 Q342.8906,443.8438 342.25,443.9844 Q341.6094,444.1406 340.9063,444.1406 Q338.4063,444.1406 337.0781,442.5 Q335.7656,440.8438 335.7656,437.7188 Q335.7656,434.5938 337.0781,432.9375 Q338.4063,431.2813 340.9063,431.2813 Q341.6094,431.2813 342.25,431.4375 Q342.9063,431.5938 343.4688,431.8906 L343.4688,434.6094 Q342.8438,434.0313 342.25,433.7656 Q341.6563,433.4844 341.0313,433.4844 Q339.6875,433.4844 339,434.5625 Q338.3125,435.625 338.3125,437.7188 Q338.3125,439.8125 339,440.8906 Q339.6875,441.9531 341.0313,441.9531 Q341.6563,441.9531 342.25,441.6875 Q342.8438,441.4063 343.4688,440.8281 L343.4688,443.5469 Z "/><text fill="#000000" font-family="sans-serif" font-size="12" lengthAdjust="spacingAndGlyphs" textLength="219" x="354.5" y="442.0605">ActivityAdapter.OnItemClickListener</text><line style="stroke: #A80036; stroke-width: 1.5;" x1="326.5" x2="575.5" y1="453.9063" y2="453.9063"/><line style="stroke: #A80036; stroke-width: 1.5;" x1="326.5" x2="575.5" y1="461.9063" y2="461.9063"/><!--class androidx.recyclerview.widget.RecyclerView.Adapter--><rect fill="#FEFECE" filter="url(#f1q28i0mbdzl41)" height="48" id="androidx.recyclerview.widget.RecyclerView.Adapter" style="stroke: #A80036; stroke-width: 1.5;" width="82" x="305" y="84.9063"/><ellipse cx="320" cy="100.9063" fill="#ADD1B2" rx="11" ry="11" style="stroke: #A80036; stroke-width: 1.0;"/><path d="M322.9688,106.5469 Q322.3906,106.8438 321.75,106.9844 Q321.1094,107.1406 320.4063,107.1406 Q317.9063,107.1406 316.5781,105.5 Q315.2656,103.8438 315.2656,100.7188 Q315.2656,97.5938 316.5781,95.9375 Q317.9063,94.2813 320.4063,94.2813 Q321.1094,94.2813 321.75,94.4375 Q322.4063,94.5938 322.9688,94.8906 L322.9688,97.6094 Q322.3438,97.0313 321.75,96.7656 Q321.1563,96.4844 320.5313,96.4844 Q319.1875,96.4844 318.5,97.5625 Q317.8125,98.625 317.8125,100.7188 Q317.8125,102.8125 318.5,103.8906 Q319.1875,104.9531 320.5313,104.9531 Q321.1563,104.9531 321.75,104.6875 Q322.3438,104.4063 322.9688,103.8281 L322.9688,106.5469 Z "/><text fill="#000000" font-family="sans-serif" font-size="12" lengthAdjust="spacingAndGlyphs" textLength="50" x="334" y="105.0605">Adapter</text><line style="stroke: #A80036; stroke-width: 1.5;" x1="306" x2="386" y1="116.9063" y2="116.9063"/><line style="stroke: #A80036; stroke-width: 1.5;" x1="306" x2="386" y1="124.9063" y2="124.9063"/><!--class androidx.recyclerview.widget.RecyclerView.ViewHolder--><rect fill="#FEFECE" filter="url(#f1q28i0mbdzl41)" height="48" id="androidx.recyclerview.widget.RecyclerView.ViewHolder" style="stroke: #A80036; stroke-width: 1.5;" width="101" x="168.5" y="84.9063"/><ellipse cx="183.5" cy="100.9063" fill="#ADD1B2" rx="11" ry="11" style="stroke: #A80036; stroke-width: 1.0;"/><path d="M186.4688,106.5469 Q185.8906,106.8438 185.25,106.9844 Q184.6094,107.1406 183.9063,107.1406 Q181.4063,107.1406 180.0781,105.5 Q178.7656,103.8438 178.7656,100.7188 Q178.7656,97.5938 180.0781,95.9375 Q181.4063,94.2813 183.9063,94.2813 Q184.6094,94.2813 185.25,94.4375 Q185.9063,94.5938 186.4688,94.8906 L186.4688,97.6094 Q185.8438,97.0313 185.25,96.7656 Q184.6563,96.4844 184.0313,96.4844 Q182.6875,96.4844 182,97.5625 Q181.3125,98.625 181.3125,100.7188 Q181.3125,102.8125 182,103.8906 Q182.6875,104.9531 184.0313,104.9531 Q184.6563,104.9531 185.25,104.6875 Q185.8438,104.4063 186.4688,103.8281 L186.4688,106.5469 Z "/><text fill="#000000" font-family="sans-serif" font-size="12" lengthAdjust="spacingAndGlyphs" textLength="69" x="197.5" y="105.0605">ViewHolder</text><line style="stroke: #A80036; stroke-width: 1.5;" x1="169.5" x2="268.5" y1="116.9063" y2="116.9063"/><line style="stroke: #A80036; stroke-width: 1.5;" x1="169.5" x2="268.5" y1="124.9063" y2="124.9063"/><!--class androidx.room.RoomDatabase--><rect fill="#FEFECE" filter="url(#f1q28i0mbdzl41)" height="48" id="androidx.room.RoomDatabase" style="stroke: #A80036; stroke-width: 1.5;" width="128" x="22" y="312.9063"/><ellipse cx="37" cy="328.9063" fill="#ADD1B2" rx="11" ry="11" style="stroke: #A80036; stroke-width: 1.0;"/><path d="M39.9688,334.5469 Q39.3906,334.8438 38.75,334.9844 Q38.1094,335.1406 37.4063,335.1406 Q34.9063,335.1406 33.5781,333.5 Q32.2656,331.8438 32.2656,328.7188 Q32.2656,325.5938 33.5781,323.9375 Q34.9063,322.2813 37.4063,322.2813 Q38.1094,322.2813 38.75,322.4375 Q39.4063,322.5938 39.9688,322.8906 L39.9688,325.6094 Q39.3438,325.0313 38.75,324.7656 Q38.1563,324.4844 37.5313,324.4844 Q36.1875,324.4844 35.5,325.5625 Q34.8125,326.625 34.8125,328.7188 Q34.8125,330.8125 35.5,331.8906 Q36.1875,332.9531 37.5313,332.9531 Q38.1563,332.9531 38.75,332.6875 Q39.3438,332.4063 39.9688,331.8281 L39.9688,334.5469 Z "/><text fill="#000000" font-family="sans-serif" font-size="12" lengthAdjust="spacingAndGlyphs" textLength="96" x="51" y="333.0605">RoomDatabase</text><line style="stroke: #A80036; stroke-width: 1.5;" x1="23" x2="149" y1="344.9063" y2="344.9063"/><line style="stroke: #A80036; stroke-width: 1.5;" x1="23" x2="149" y1="352.9063" y2="352.9063"/><!--class androidx.lifecycle.AndroidViewModel--><rect fill="#FEFECE" filter="url(#f1q28i0mbdzl41)" height="48" id="androidx.lifecycle.AndroidViewModel" style="stroke: #A80036; stroke-width: 1.5;" width="145" x="1390.5" y="312.9063"/><ellipse cx="1405.5" cy="328.9063" fill="#ADD1B2" rx="11" ry="11" style="stroke: #A80036; stroke-width: 1.0;"/><path d="M1408.4688,334.5469 Q1407.8906,334.8438 1407.25,334.9844 Q1406.6094,335.1406 1405.9063,335.1406 Q1403.4063,335.1406 1402.0781,333.5 Q1400.7656,331.8438 1400.7656,328.7188 Q1400.7656,325.5938 1402.0781,323.9375 Q1403.4063,322.2813 1405.9063,322.2813 Q1406.6094,322.2813 1407.25,322.4375 Q1407.9063,322.5938 1408.4688,322.8906 L1408.4688,325.6094 Q1407.8438,325.0313 1407.25,324.7656 Q1406.6563,324.4844 1406.0313,324.4844 Q1404.6875,324.4844 1404,325.5625 Q1403.3125,326.625 1403.3125,328.7188 Q1403.3125,330.8125 1404,331.8906 Q1404.6875,332.9531 1406.0313,332.9531 Q1406.6563,332.9531 1407.25,332.6875 Q1407.8438,332.4063 1408.4688,331.8281 L1408.4688,334.5469 Z "/><text fill="#000000" font-family="sans-serif" font-size="12" lengthAdjust="spacingAndGlyphs" textLength="113" x="1419.5" y="333.0605">AndroidViewModel</text><line style="stroke: #A80036; stroke-width: 1.5;" x1="1391.5" x2="1534.5" y1="344.9063" y2="344.9063"/><line style="stroke: #A80036; stroke-width: 1.5;" x1="1391.5" x2="1534.5" y1="352.9063" y2="352.9063"/><!--class com.github.mikephil.charting.listener.OnChartValueSelectedListener--><rect fill="#FEFECE" filter="url(#f1q28i0mbdzl41)" height="48" id="com.github.mikephil.charting.listener.OnChartValueSelectedListener" style="stroke: #A80036; stroke-width: 1.5;" width="223" x="460.5" y="84.9063"/><ellipse cx="475.5" cy="100.9063" fill="#ADD1B2" rx="11" ry="11" style="stroke: #A80036; stroke-width: 1.0;"/><path d="M478.4688,106.5469 Q477.8906,106.8438 477.25,106.9844 Q476.6094,107.1406 475.9063,107.1406 Q473.4063,107.1406 472.0781,105.5 Q470.7656,103.8438 470.7656,100.7188 Q470.7656,97.5938 472.0781,95.9375 Q473.4063,94.2813 475.9063,94.2813 Q476.6094,94.2813 477.25,94.4375 Q477.9063,94.5938 478.4688,94.8906 L478.4688,97.6094 Q477.8438,97.0313 477.25,96.7656 Q476.6563,96.4844 476.0313,96.4844 Q474.6875,96.4844 474,97.5625 Q473.3125,98.625 473.3125,100.7188 Q473.3125,102.8125 474,103.8906 Q474.6875,104.9531 476.0313,104.9531 Q476.6563,104.9531 477.25,104.6875 Q477.8438,104.4063 478.4688,103.8281 L478.4688,106.5469 Z "/><text fill="#000000" font-family="sans-serif" font-size="12" lengthAdjust="spacingAndGlyphs" textLength="191" x="489.5" y="105.0605">OnChartValueSelectedListener</text><line style="stroke: #A80036; stroke-width: 1.5;" x1="461.5" x2="682.5" y1="116.9063" y2="116.9063"/><line style="stroke: #A80036; stroke-width: 1.5;" x1="461.5" x2="682.5" y1="124.9063" y2="124.9063"/><!--class androidx.appcompat.app.AppCompatActivity--><rect fill="#FEFECE" filter="url(#f1q28i0mbdzl41)" height="48" id="androidx.appcompat.app.AppCompatActivity" style="stroke: #A80036; stroke-width: 1.5;" width="147" x="728.5" y="84.9063"/><ellipse cx="743.5" cy="100.9063" fill="#ADD1B2" rx="11" ry="11" style="stroke: #A80036; stroke-width: 1.0;"/><path d="M746.4688,106.5469 Q745.8906,106.8438 745.25,106.9844 Q744.6094,107.1406 743.9063,107.1406 Q741.4063,107.1406 740.0781,105.5 Q738.7656,103.8438 738.7656,100.7188 Q738.7656,97.5938 740.0781,95.9375 Q741.4063,94.2813 743.9063,94.2813 Q744.6094,94.2813 745.25,94.4375 Q745.9063,94.5938 746.4688,94.8906 L746.4688,97.6094 Q745.8438,97.0313 745.25,96.7656 Q744.6563,96.4844 744.0313,96.4844 Q742.6875,96.4844 742,97.5625 Q741.3125,98.625 741.3125,100.7188 Q741.3125,102.8125 742,103.8906 Q742.6875,104.9531 744.0313,104.9531 Q744.6563,104.9531 745.25,104.6875 Q745.8438,104.4063 746.4688,103.8281 L746.4688,106.5469 Z "/><text fill="#000000" font-family="sans-serif" font-size="12" lengthAdjust="spacingAndGlyphs" textLength="115" x="757.5" y="105.0605">AppCompatActivity</text><line style="stroke: #A80036; stroke-width: 1.5;" x1="729.5" x2="874.5" y1="116.9063" y2="116.9063"/><line style="stroke: #A80036; stroke-width: 1.5;" x1="729.5" x2="874.5" y1="124.9063" y2="124.9063"/><!--class androidx.appcompat.widget.AppCompatTextView--><rect fill="#FEFECE" filter="url(#f1q28i0mbdzl41)" height="48" id="androidx.appcompat.widget.AppCompatTextView" style="stroke: #A80036; stroke-width: 1.5;" width="158" x="947" y="84.9063"/><ellipse cx="962" cy="100.9063" fill="#ADD1B2" rx="11" ry="11" style="stroke: #A80036; stroke-width: 1.0;"/><path d="M964.9688,106.5469 Q964.3906,106.8438 963.75,106.9844 Q963.1094,107.1406 962.4063,107.1406 Q959.9063,107.1406 958.5781,105.5 Q957.2656,103.8438 957.2656,100.7188 Q957.2656,97.5938 958.5781,95.9375 Q959.9063,94.2813 962.4063,94.2813 Q963.1094,94.2813 963.75,94.4375 Q964.4063,94.5938 964.9688,94.8906 L964.9688,97.6094 Q964.3438,97.0313 963.75,96.7656 Q963.1563,96.4844 962.5313,96.4844 Q961.1875,96.4844 960.5,97.5625 Q959.8125,98.625 959.8125,100.7188 Q959.8125,102.8125 960.5,103.8906 Q961.1875,104.9531 962.5313,104.9531 Q963.1563,104.9531 963.75,104.6875 Q964.3438,104.4063 964.9688,103.8281 L964.9688,106.5469 Z "/><text fill="#000000" font-family="sans-serif" font-size="12" lengthAdjust="spacingAndGlyphs" textLength="126" x="976" y="105.0605">AppCompatTextView</text><line style="stroke: #A80036; stroke-width: 1.5;" x1="948" x2="1104" y1="116.9063" y2="116.9063"/><line style="stroke: #A80036; stroke-width: 1.5;" x1="948" x2="1104" y1="124.9063" y2="124.9063"/><!--link androidx.recyclerview.widget.RecyclerView.Adapter to com.example.android.gpslog_test.ActivityAdapter--><path d="M371.4516,150.356 C381.4389,166.621 392.5493,184.7152 401.1762,198.7646 " fill="none" id="androidx.recyclerview.widget.RecyclerView.Adapter-com.example.android.gpslog_test.ActivityAdapter" style="stroke: #A80036; stroke-width: 1.0;"/><polygon fill="none" points="365.3453,153.789,360.8452,133.0828,377.2757,146.4633,365.3453,153.789" style="stroke: #A80036; stroke-width: 1.0;"/><!--link com.example.android.gpslog_test.ActivityAdapter to com.example.android.gpslog_test.ActivityAdapter.OnItemClickListener--><path d="M421.8369,260.0955 C429.0396,305.9869 441.081,382.7079 447.1925,421.6468 " fill="none" id="com.example.android.gpslog_test.ActivityAdapter-com.example.android.gpslog_test.ActivityAdapter.OnItemClickListener" style="stroke: #A80036; stroke-width: 1.0;"/><polygon fill="#FFFFFF" points="419.8122,247.1957,416.7909,253.7433,421.6728,259.0505,424.6941,252.5029,419.8122,247.1957" style="stroke: #A80036; stroke-width: 1.0;"/><text fill="#000000" font-family="sans-serif" font-size="13" lengthAdjust="spacingAndGlyphs" textLength="47" x="439" y="341.4731">listener</text><!--link androidx.recyclerview.widget.RecyclerView.ViewHolder to com.example.android.gpslog_test.ActivityViewHolder--><path d="M229.3791,152.7292 C233.0818,168.3626 237.1157,185.395 240.2822,198.7646 " fill="none" id="androidx.recyclerview.widget.RecyclerView.ViewHolder-com.example.android.gpslog_test.ActivityViewHolder" style="stroke: #A80036; stroke-width: 1.0;"/><polygon fill="none" points="222.5238,154.1577,224.726,133.0828,236.147,150.9311,222.5238,154.1577" style="stroke: #A80036; stroke-width: 1.0;"/><!--link androidx.room.RoomDatabase to com.example.android.gpslog_test.AppDatabase--><path d="M134.7134,373.2745 C156.0953,389.2377 180.6145,407.5431 199.6884,421.7832 " fill="none" id="androidx.room.RoomDatabase-com.example.android.gpslog_test.AppDatabase" style="stroke: #A80036; stroke-width: 1.0;"/><polygon fill="none" points="130.2407,378.6709,118.4021,361.0969,138.6162,367.4526,130.2407,378.6709" style="stroke: #A80036; stroke-width: 1.0;"/><!--link com.example.android.gpslog_test.AppDatabaseDao to com.example.android.gpslog_test.AppDatabaseDao_Impl--><path d="M295,864.2244 C295,896.9825 295,940.3364 295,966.8916 " fill="none" id="com.example.android.gpslog_test.AppDatabaseDao-com.example.android.gpslog_test.AppDatabaseDao_Impl" style="stroke: #A80036; stroke-width: 1.0; stroke-dasharray: 7.0,7.0;"/><polygon fill="none" points="288.0001,864.0438,295,844.0437,302.0001,864.0437,288.0001,864.0438" style="stroke: #A80036; stroke-width: 1.0;"/><!--link com.example.android.gpslog_test.AppDatabase to com.example.android.gpslog_test.AppDatabase_Impl--><path d="M240.6915,489.8337 C248.0268,526.9065 258.2563,578.6069 264.1983,608.6383 " fill="none" id="com.example.android.gpslog_test.AppDatabase-com.example.android.gpslog_test.AppDatabase_Impl" style="stroke: #A80036; stroke-width: 1.0;"/><polygon fill="none" points="233.7765,490.9488,236.7614,469.9705,247.5103,488.2314,233.7765,490.9488" style="stroke: #A80036; stroke-width: 1.0;"/><!--link com.example.android.gpslog_test.AppDatabase_Impl to com.example.android.gpslog_test.AppDatabaseDao--><path d="M274.1918,670.2475 C279.3776,707.5451 287.1967,763.7824 291.6258,795.6383 " fill="none" id="com.example.android.gpslog_test.AppDatabase_Impl-com.example.android.gpslog_test.AppDatabaseDao" style="stroke: #A80036; stroke-width: 1.0;"/><polygon fill="#FFFFFF" points="272.3458,656.9705,269.2102,663.4641,273.9984,668.8561,277.134,662.3624,272.3458,656.9705" style="stroke: #A80036; stroke-width: 1.0;"/><text fill="#000000" font-family="sans-serif" font-size="13" lengthAdjust="spacingAndGlyphs" textLength="119" x="283" y="730.9731">_appDatabaseDao</text><!--link com.example.android.gpslog_test.AppRepository to com.example.android.gpslog_test.AppDatabaseDao--><path d="M621.2519,662.6664 C544.7048,699.5589 415.7292,761.7198 345.0452,795.7866 " fill="none" id="com.example.android.gpslog_test.AppRepository-com.example.android.gpslog_test.AppDatabaseDao" style="stroke: #A80036; stroke-width: 1.0;"/><polygon fill="#FFFFFF" points="633.0701,656.9705,625.9284,655.9721,622.2601,662.1805,629.4018,663.1788,633.0701,656.9705" style="stroke: #A80036; stroke-width: 1.0;"/><text fill="#000000" font-family="sans-serif" font-size="13" lengthAdjust="spacingAndGlyphs" textLength="112" x="502" y="730.9731">appDatabaseDao</text><!--link androidx.lifecycle.AndroidViewModel to com.example.android.gpslog_test.AppViewModel--><path d="M1388.3161,367.2175 C1386.1981,367.8171 1384.0899,368.3821 1382,368.9063 C1324.0847,383.4331 930.6362,424.2551 777.6622,439.7953 " fill="none" id="androidx.lifecycle.AndroidViewModel-com.example.android.gpslog_test.AppViewModel" style="stroke: #A80036; stroke-width: 1.0;"/><polygon fill="none" points="1386.2294,360.5354,1407.4127,361.0524,1390.5306,373.8584,1386.2294,360.5354" style="stroke: #A80036; stroke-width: 1.0;"/><!--link com.example.android.gpslog_test.AppViewModel to com.example.android.gpslog_test.AppRepository--><path d="M710.2107,483.2474 C703.4293,520.5451 693.2043,576.7824 687.4124,608.6383 " fill="none" id="com.example.android.gpslog_test.AppViewModel-com.example.android.gpslog_test.AppRepository" style="stroke: #A80036; stroke-width: 1.0;"/><polygon fill="#FFFFFF" points="712.6247,469.9705,707.6159,475.1581,710.478,481.7769,715.4868,476.5892,712.6247,469.9705" style="stroke: #A80036; stroke-width: 1.0;"/><text fill="#000000" font-family="sans-serif" font-size="13" lengthAdjust="spacingAndGlyphs" textLength="80" x="702" y="543.9731">mRepository</text><!--link com.github.mikephil.charting.listener.OnChartValueSelectedListener to com.example.android.gpslog_test.ChartManage--><path d="M572,153.2598 C572,168.747 572,185.5459 572,198.7646 " fill="none" id="com.github.mikephil.charting.listener.OnChartValueSelectedListener-com.example.android.gpslog_test.ChartManage" style="stroke: #A80036; stroke-width: 1.0; stroke-dasharray: 7.0,7.0;"/><polygon fill="none" points="565.0001,153.0828,572,133.0828,579.0001,153.0826,565.0001,153.0828" style="stroke: #A80036; stroke-width: 1.0;"/><!--link androidx.appcompat.app.AppCompatActivity to com.example.android.gpslog_test.MainActivity--><path d="M771.8749,149.3093 C759.5487,165.8409 745.7011,184.413 735.0003,198.7646 " fill="none" id="androidx.appcompat.app.AppCompatActivity-com.example.android.gpslog_test.MainActivity" style="stroke: #A80036; stroke-width: 1.0;"/><polygon fill="none" points="766.4069,144.9321,783.9737,133.0828,777.6305,153.3007,766.4069,144.9321" style="stroke: #A80036; stroke-width: 1.0;"/><!--link com.example.android.gpslog_test.MainActivity to com.example.android.gpslog_test.AppViewModel--><path d="M717,260.3919 C717,306.3167 717,382.7917 717,421.6468 " fill="none" id="com.example.android.gpslog_test.MainActivity-com.example.android.gpslog_test.AppViewModel" style="stroke: #A80036; stroke-width: 1.0;"/><polygon fill="#FFFFFF" points="717,247.1957,713,253.1957,717,259.1957,721,253.1957,717,247.1957" style="stroke: #A80036; stroke-width: 1.0;"/><text fill="#000000" font-family="sans-serif" font-size="13" lengthAdjust="spacingAndGlyphs" textLength="91" x="718" y="341.4731">appViewModel</text><!--link androidx.appcompat.widget.AppCompatTextView to com.example.android.gpslog_test.VerticalTextView--><path d="M976.6804,145.1801 C952.8825,162.683 924.9806,183.2044 903.8241,198.7646 " fill="none" id="androidx.appcompat.widget.AppCompatTextView-com.example.android.gpslog_test.VerticalTextView" style="stroke: #A80036; stroke-width: 1.0;"/><polygon fill="none" points="972.8695,139.2935,993.1285,133.0828,981.1643,150.5716,972.8695,139.2935" style="stroke: #A80036; stroke-width: 1.0;"/><!--link com.example.android.gpslog_test.BuildConfig to com.example.android.gpslog_test.ExerciseEntity--><!--link com.example.android.gpslog_test.ExerciseEntity to com.example.android.gpslog_test.LocManage--><!--link com.example.android.gpslog_test.BuildConfig to com.example.android.gpslog_test.MapManage--><!--link com.example.android.gpslog_test.MapManage to com.example.android.gpslog_test.TrackEntity--><!--link com.example.android.gpslog_test.TrackEntity to com.example.android.gpslog_test.TypeEntity--><!--link com.example.android.gpslog_test.MapManage to com.example.android.gpslog_test.Utils--><text fill="#888888" font-family="sans-serif" font-size="10" lengthAdjust="spacingAndGlyphs" textLength="0" x="1570" y="1050.1885"/><text fill="#888888" font-family="sans-serif" font-size="10" lengthAdjust="spacingAndGlyphs" textLength="0" x="1570" y="1061.8291"/><text fill="#888888" font-family="sans-serif" font-size="10" lengthAdjust="spacingAndGlyphs" textLength="413" x="1157" y="1073.4697">PlantUML diagram generated by SketchIt! (https://bitbucket.org/pmesmeur/sketch.it)</text><text fill="#888888" font-family="sans-serif" font-size="10" lengthAdjust="spacingAndGlyphs" textLength="402" x="1168" y="1085.1104">For more information about this tool, please contact philippe.mesmeur@gmail.com</text><!--
@startuml
skinparam classFontSize 12
title __APP's Class Diagram__\n

  namespace com.example.android.gpslog_test {
    class com.example.android.gpslog_test.ActivityAdapter {
    }
  }
  

  namespace com.example.android.gpslog_test {
    class com.example.android.gpslog_test.ActivityViewHolder {
    }
  }
  

  namespace com.example.android.gpslog_test {
    abstract class com.example.android.gpslog_test.AppDatabase {
    }
  }
  

  namespace com.example.android.gpslog_test {
    interface com.example.android.gpslog_test.AppDatabaseDao {
    }
  }
  

  namespace com.example.android.gpslog_test {
    class com.example.android.gpslog_test.AppDatabaseDao_Impl {
    }
  }
  

  namespace com.example.android.gpslog_test {
    class com.example.android.gpslog_test.AppDatabase_Impl {
    }
  }
  

  namespace com.example.android.gpslog_test {
    class com.example.android.gpslog_test.AppRepository {
    }
  }
  

  namespace com.example.android.gpslog_test {
    class com.example.android.gpslog_test.AppViewModel {
    }
  }
  

  namespace com.example.android.gpslog_test {
    class com.example.android.gpslog_test.BuildConfig {
    }
  }
  

  namespace com.example.android.gpslog_test {
    class com.example.android.gpslog_test.ChartManage {
    }
  }
  

  namespace com.example.android.gpslog_test {
    class com.example.android.gpslog_test.ExerciseEntity {
    }
  }
  

  namespace com.example.android.gpslog_test {
    class com.example.android.gpslog_test.LocManage {
    }
  }
  

  namespace com.example.android.gpslog_test {
    class com.example.android.gpslog_test.MainActivity {
    }
  }
  

  namespace com.example.android.gpslog_test {
    class com.example.android.gpslog_test.MapManage {
    }
  }
  

  namespace com.example.android.gpslog_test {
    class com.example.android.gpslog_test.TrackEntity {
    }
  }
  

  namespace com.example.android.gpslog_test {
    class com.example.android.gpslog_test.TypeEntity {
    }
  }
  

  namespace com.example.android.gpslog_test {
    class com.example.android.gpslog_test.Utils {
    }
  }
  

  namespace com.example.android.gpslog_test {
    class com.example.android.gpslog_test.VerticalTextView {
    }
  }
  

  com.example.android.gpslog_test.ActivityAdapter -up-|> androidx.recyclerview.widget.RecyclerView.Adapter
  com.example.android.gpslog_test.ActivityAdapter o- - com.example.android.gpslog_test.ActivityAdapter.OnItemClickListener : listener
  com.example.android.gpslog_test.ActivityViewHolder -up-|> androidx.recyclerview.widget.RecyclerView.ViewHolder
  com.example.android.gpslog_test.AppDatabase -up-|> androidx.room.RoomDatabase
  com.example.android.gpslog_test.AppDatabaseDao_Impl .up.|> com.example.android.gpslog_test.AppDatabaseDao
  com.example.android.gpslog_test.AppDatabase_Impl -up-|> com.example.android.gpslog_test.AppDatabase
  com.example.android.gpslog_test.AppDatabase_Impl o- - com.example.android.gpslog_test.AppDatabaseDao : _appDatabaseDao
  com.example.android.gpslog_test.AppRepository o- - com.example.android.gpslog_test.AppDatabaseDao : appDatabaseDao
  com.example.android.gpslog_test.AppViewModel -up-|> androidx.lifecycle.AndroidViewModel
  com.example.android.gpslog_test.AppViewModel o- - com.example.android.gpslog_test.AppRepository : mRepository
  com.example.android.gpslog_test.ChartManage .up.|> com.github.mikephil.charting.listener.OnChartValueSelectedListener
  com.example.android.gpslog_test.MainActivity -up-|> androidx.appcompat.app.AppCompatActivity
  com.example.android.gpslog_test.MainActivity o- - com.example.android.gpslog_test.AppViewModel : appViewModel
  com.example.android.gpslog_test.VerticalTextView -up-|> androidx.appcompat.widget.AppCompatTextView


right footer


PlantUML diagram generated by SketchIt! (https://bitbucket.org/pmesmeur/sketch.it)
For more information about this tool, please contact philippe.mesmeur@gmail.com
endfooter

@enduml

PlantUML version 1.2017.15(Mon Jul 03 18:45:34 CEST 2017)
(GPL source distribution)
Java Runtime: OpenJDK Runtime Environment
JVM: OpenJDK 64-Bit Server VM
Java Version: 1.8.0_252-8u252-b09-1~18.04-b09
Operating System: Linux
OS Version: 4.15.0-101-generic
Default Encoding: UTF-8
Language: en
Country: US
--></g></svg>